<?xml version="1.0" encoding="UTF-8"?>
<!DOCTYPE svg PUBLIC "-//W3C//DTD SVG 1.1//EN" "http://www.w3.org/Graphics/SVG/1.1/DTD/svg11.dtd">
<!-- Creator: CorelDRAW -->
<svg xmlns="http://www.w3.org/2000/svg" xml:space="preserve" width="100%" height="100%" style="shape-rendering:geometricPrecision; text-rendering:geometricPrecision; image-rendering:optimizeQuality; fill-rule:evenodd; clip-rule:evenodd"
viewBox="0 0 19.1558 15.1502"
 xmlns:xlink="http://www.w3.org/1999/xlink">
 <defs>
  <style type="text/css">
   <![CDATA[
    .fil1 {fill:#75C5F0}
    .fil0 {fill:#8B13FE}
   ]]>
  </style>
 </defs>
 <g id="Слой_x0020_1">
  <metadata id="CorelCorpID_0Corel-Layer"/>
  <path class="fil0" d="M4.14624 0l10.8634 0c1.17888,0 2.14342,0.96454 2.14342,2.14342 0,1.35 -0.09381,3.0362 0.28,4.05 0.37381,1.0138 0.90041,1.02526 1.72281,1.38168 -0.79518,0.33301 -1.34851,0.34691 -1.72281,1.36204 -0.3743,1.01513 -0.28,2.71309 -0.28,4.06964 0,1.17888 -0.96454,2.14342 -2.14342,2.14342l-10.8634 0c-1.17888,0 -2.14342,-0.96454 -2.14342,-2.14342 0,-1.34712 0.07382,-3.02902 -0.3,-4.04134 -0.37382,-1.01232 -0.98215,-1.11859 -1.70282,-1.38226 0.67898,-0.30537 1.40267,-0.6212 1.68282,-1.38226 0.46715,-1.2691 0.32,-2.705 0.32,-4.0575 0,-1.17888 0.96454,-2.14342 2.14342,-2.14342z"/>
  <path class="fil1" d="M9.57792 4.65797c0.23432,0 0.46619,0.00397 0.69519,0.01172 -0.231,-0.31432 -0.46367,-0.60902 -0.69518,-0.88187 -0.23157,0.27289 -0.46431,0.5677 -0.69537,0.8821 0.22907,-0.00781 0.46093,-0.01195 0.69536,-0.01195zm0 1.63813c0.70625,0 1.279,0.57275 1.279,1.279 0,0.70625 -0.57275,1.279 -1.279,1.279 -0.70625,0 -1.279,-0.57275 -1.279,-1.279 0,-0.70625 0.57275,-1.279 1.279,-1.279zm1.64542 -1.57144c0.65676,0.05409 1.28231,0.13986 1.86482,0.25294 0.47668,-1.61729 0.45959,-2.85293 -0.15768,-3.2093 -0.61725,-0.35638 -1.69586,0.2467 -2.85811,1.46815 0.38904,0.44783 0.77588,0.94672 1.15097,1.48821zm0.88089 1.39187c-0.11721,-0.20301 -0.23672,-0.40171 -0.358,-0.59617 0.38773,0.04293 0.75948,0.09702 1.11158,0.1611 -0.12055,0.33697 -0.25959,0.68596 -0.41628,1.04321 -0.10778,-0.20227 -0.22009,-0.40513 -0.3373,-0.60814zm-2.52624 -3.42043c-1.49972,-1.55486 -2.96973,-2.30508 -3.85329,-1.79496 -0.88356,0.51012 -0.96881,2.15831 -0.37216,4.23453 -2.09638,0.52134 -3.48105,1.4192 -3.48105,2.43943 0,1.02023 1.38471,1.91815 3.48103,2.43954 -0.59661,2.07617 -0.51136,3.72431 0.37219,4.23442 0.88354,0.51012 2.35346,-0.24012 3.85314,-1.79496 1.49973,1.55482 2.96973,2.30508 3.85329,1.79496 0.88356,-0.51012 0.96881,-2.15831 0.37216,-4.23453 2.09638,-0.52134 3.48105,-1.4192 3.48105,-2.43943 0,-1.02023 -1.38471,-1.91815 -3.48103,-2.43954 0.59661,-2.07617 0.51136,-3.72431 -0.37219,-4.23442 -0.88354,-0.51012 -2.35346,0.24012 -3.85314,1.79496zm-4.00467 3.13787c0.19326,0.5608 0.43193,1.14528 0.71333,1.74087 -0.28155,0.59582 -0.52003,1.18046 -0.71336,1.74147 -1.63895,-0.39582 -2.7005,-1.02846 -2.7005,-1.74121 0,-0.71275 1.06159,-1.34532 2.70053,-1.74113zm1.14099 2.59156c0.10777,0.20227 0.22009,0.40513 0.3373,0.60814 0.11721,0.20301 0.23672,0.40171 0.358,0.59617 -0.38773,-0.04293 -0.75948,-0.09702 -1.11158,-0.1611 0.12055,-0.33697 0.25959,-0.68596 0.41628,-1.04321zm1.21819 2.00001c0.37509,0.54142 0.76196,1.0404 1.15097,1.48821 -1.16225,1.22145 -2.24086,1.82453 -2.85811,1.46815 -0.61727,-0.35637 -0.63436,-1.59201 -0.15768,-3.2093 0.58251,0.11308 1.20806,0.19885 1.86482,0.25294zm5.65002 -1.10931c-0.19332,-0.5608 -0.43199,-1.14532 -0.71333,-1.74087 0.28155,-0.59582 0.52003,-1.18046 0.71336,-1.74147 1.63895,0.39582 2.7005,1.02846 2.7005,1.74121 0,0.71275 -1.06159,1.34532 -2.70053,1.74113zm-2.12452 -2.8266c-0.21049,-0.36458 -0.42739,-0.71489 -0.64796,-1.04881 -0.3994,-0.02406 -0.81121,-0.03665 -1.23212,-0.03665 -0.42095,0 -0.83272,0.01267 -1.23217,0.03673 -0.22055,0.33391 -0.43743,0.68418 -0.64791,1.04873 -0.21046,0.36452 -0.40546,0.72746 -0.58433,1.08538 0.17891,0.35799 0.37384,0.72098 0.58433,1.08556 0.21049,0.36458 0.42739,0.71488 0.64796,1.04881 0.3994,0.02406 0.81121,0.03665 1.23212,0.03665 0.42095,0 0.83272,-0.01267 1.23217,-0.03673 0.22055,-0.33391 0.43743,-0.68418 0.64791,-1.04873 0.21046,-0.36452 0.40546,-0.72746 0.58433,-1.08538 -0.17891,-0.35799 -0.37384,-0.72098 -0.58433,-1.08556zm-2.37426 -3.25303c-1.16236,-1.22168 -2.24109,-1.82471 -2.85839,-1.46831 -0.6173,0.3564 -0.63436,1.59216 -0.15759,3.20959 0.58245,-0.11307 1.20789,-0.19889 1.86458,-0.25299 0.3752,-0.54167 0.76225,-1.0404 1.1514,-1.48829zm-2.78571 2.44486c0.12053,0.33692 0.25947,0.6858 0.41613,1.04299 0.10778,-0.2022 0.22029,-0.40499 0.33745,-0.60792 0.11721,-0.20303 0.23674,-0.40174 0.35803,-0.59622 -0.38781,0.0429 -0.7595,0.09706 -1.11161,0.16115zm2.5847 4.79905c0.231,0.3143 0.46367,0.609 0.69518,0.88187 0.23157,-0.27289 0.46431,-0.5677 0.69537,-0.8821 -0.22907,0.00781 -0.46093,0.01195 -0.69536,0.01195 -0.23432,0 -0.46619,-0.00397 -0.69519,-0.01172zm1.18937 1.43309c1.16235,1.22161 2.24109,1.82471 2.85839,1.46831 0.6173,-0.3564 0.63436,-1.59216 0.15759,-3.20959 -0.58245,0.11307 -1.20789,0.19889 -1.86458,0.25299 -0.3752,0.54167 -0.76225,1.0404 -1.1514,1.48829zm2.78571 -2.44486c-0.12055,-0.33692 -0.25943,-0.68578 -0.41613,-1.04299 -0.10778,0.2022 -0.22029,0.40499 -0.33745,0.60792 -0.11721,0.20303 -0.23674,0.40174 -0.35803,0.59622 0.38781,-0.0429 0.7595,-0.09706 1.11161,-0.16115z"/>
 </g>
</svg>
